<svg width="16" height="16" viewBox="0 0 16 16" fill="none" xmlns="http://www.w3.org/2000/svg">
<path d="M7.99992 14.6665C5.32863 14.6665 3.99298 14.6665 3.16312 13.7878C2.33325 12.9092 2.33325 11.4949 2.33325 8.6665C2.33325 5.83808 2.33325 4.42386 3.16312 3.54518C3.99298 2.6665 5.32863 2.6665 7.99992 2.6665C10.6712 2.6665 12.0069 2.6665 12.8367 3.54518C13.6666 4.42386 13.6666 5.83808 13.6666 8.6665C13.6666 11.4949 13.6666 12.9092 12.8367 13.7878C12.0069 14.6665 10.6712 14.6665 7.99992 14.6665Z" stroke="#0072C6" stroke-width="1.5" stroke-linecap="round" stroke-linejoin="round"/>
<path d="M5.33325 2.66683V1.3335" stroke="#0072C6" stroke-width="1.5" stroke-linecap="round"/>
<path d="M10.6667 2.66683V1.3335" stroke="#0072C6" stroke-width="1.5" stroke-linecap="round"/>
<path d="M9.34555 6.3284C9.34555 7.0648 8.74862 7.66173 8.01229 7.66173C7.27589 7.66173 6.67896 7.0648 6.67896 6.3284C6.67896 5.59205 7.27589 4.99512 8.01229 4.99512C8.74862 4.99512 9.34555 5.59205 9.34555 6.3284Z" stroke="#0072C6" stroke-width="1.5" stroke-linecap="round" stroke-linejoin="round"/>
<path d="M5.37524 11.1438C6.0808 10.0576 7.20125 9.65057 8.01198 9.65137C8.82265 9.65224 9.91032 10.0576 10.6159 11.1438C10.6615 11.2141 10.6741 11.3006 10.6329 11.3736C10.4679 11.6662 9.95552 12.2468 9.58552 12.2862C9.16032 12.3314 8.04812 12.3377 8.01285 12.3379C7.97752 12.3377 6.83098 12.3314 6.40559 12.2862C6.03555 12.2468 5.52322 11.6662 5.35822 11.3736C5.31705 11.3006 5.32962 11.2141 5.37524 11.1438Z" stroke="#0072C6" stroke-width="1.5" stroke-linecap="round" stroke-linejoin="round"/>
</svg>
