<svg width="16" height="16" viewBox="0 0 16 16" fill="none" xmlns="http://www.w3.org/2000/svg">
<path d="M8.33325 14.6668H7.25919C4.46567 14.6668 3.06892 14.6668 2.20109 13.83C1.33325 12.9932 1.33325 11.6463 1.33325 8.95256V5.3335H14.6666V7.00016" stroke="#0072C6" stroke-width="1.5" stroke-linecap="round" stroke-linejoin="round"/>
<path d="M11.9999 8C10.5272 8 9.33325 9.20593 9.33325 10.6935C9.33325 11.5442 9.66659 12.2055 10.3333 12.7963C10.8032 13.2127 11.3725 13.9044 11.7142 14.465C11.8781 14.7339 12.1099 14.7339 12.2857 14.465C12.6447 13.9155 13.1967 13.2127 13.6666 12.7963C14.3333 12.2055 14.6666 11.5442 14.6666 10.6935C14.6666 9.20593 13.4727 8 11.9999 8Z" stroke="#0072C6" stroke-width="1.5" stroke-linejoin="round"/>
<path d="M12 10.6665H12.006" stroke="#0072C6" stroke-width="2" stroke-linecap="round" stroke-linejoin="round"/>
<path d="M1.33325 5.3335L1.97428 3.79504C2.47143 2.60188 2.72001 2.0053 3.22385 1.6694C3.7277 1.3335 4.374 1.3335 5.66659 1.3335H10.3333C11.6259 1.3335 12.2721 1.3335 12.776 1.6694C13.2799 2.0053 13.5284 2.60188 14.0256 3.79504L14.6666 5.3335" stroke="#0072C6" stroke-width="1.5" stroke-linecap="round"/>
<path d="M8 5.3335V1.3335" stroke="#0072C6" stroke-width="1.5" stroke-linecap="round"/>
<path d="M6.66675 8H8.00008" stroke="#0072C6" stroke-width="1.5" stroke-linecap="round"/>
</svg>
