<svg width="15" height="16" viewBox="0 0 15 16" fill="none" xmlns="http://www.w3.org/2000/svg">
<path d="M7.49992 1.33337L7.50218 12.9355C7.26192 12.935 7.02225 12.9888 6.84145 13.0968L4.84832 14.2864C3.41515 15.14 2.55525 14.5082 2.92854 12.875L3.40182 10.8117C3.48848 10.4218 3.33516 9.87744 3.05519 9.59517L1.40204 7.92837C0.422152 6.94711 0.742112 5.95239 2.10197 5.72387L4.22839 5.36766C4.58836 5.30717 5.01497 4.99129 5.17496 4.66196L6.34819 2.29616C6.66419 1.65547 7.08158 1.33453 7.49992 1.33337Z" fill="#FFA500"/>
<path d="M7.49992 1.33337L7.50218 12.9355C7.26192 12.935 7.02225 12.9888 6.84145 13.0968L4.84832 14.2864C3.41515 15.14 2.55525 14.5082 2.92854 12.875L3.40182 10.8117C3.48848 10.4218 3.33516 9.87744 3.05519 9.59517L1.40204 7.92837C0.422152 6.94711 0.742112 5.95239 2.10197 5.72387L4.22839 5.36766C4.58836 5.30717 5.01497 4.99129 5.17496 4.66196L6.34818 2.29616C6.66418 1.65547 7.08158 1.33453 7.49992 1.33337ZM7.49992 1.33337H7.50218M9.49992 13.8958L10.1544 14.2864C11.5809 15.14 12.4475 14.5015 12.0742 12.875L11.6009 10.8117C11.5143 10.4218 11.6676 9.87744 11.9475 9.59517L13.6007 7.92837C14.5739 6.94711 14.2607 5.95239 12.9008 5.72387L10.7743 5.36766C10.4211 5.30717 9.99445 4.99129 9.83445 4.66196L9.49992 3.98738" stroke="#FFA500" stroke-width="1.5" stroke-linecap="round" stroke-linejoin="round"/>
</svg>
