<svg width="16" height="16" viewBox="0 0 16 16" fill="none" xmlns="http://www.w3.org/2000/svg">
<path d="M1.33325 3.3335L5.94193 5.94991C7.62572 6.90583 8.37412 6.90583 10.0579 5.94991L14.6666 3.3335" stroke="#0072C6" stroke-width="1.5" stroke-linejoin="round"/>
<path d="M6.99992 12.9998C6.68905 12.9958 6.3778 12.9898 6.06581 12.982C3.96681 12.9292 2.91731 12.9028 2.16323 12.1454C1.40914 11.388 1.38735 10.3656 1.34377 8.32077C1.32975 7.66324 1.32975 7.00964 1.34376 6.35212C1.38735 4.30726 1.40913 3.28482 2.16322 2.52743C2.91731 1.77004 3.96681 1.74366 6.0658 1.69089C7.35945 1.65837 8.64039 1.65838 9.93405 1.6909C12.0331 1.74366 13.0825 1.77005 13.8366 2.52744C14.5907 3.28483 14.6125 4.30726 14.6561 6.35213C14.6625 6.65484 14.666 6.7975 14.6665 6.99984" stroke="#0072C6" stroke-width="1.5" stroke-linecap="round" stroke-linejoin="round"/>
<path d="M12.6667 11.3335C12.6667 11.8858 12.219 12.3335 11.6667 12.3335C11.1145 12.3335 10.6667 11.8858 10.6667 11.3335C10.6667 10.7812 11.1145 10.3335 11.6667 10.3335C12.219 10.3335 12.6667 10.7812 12.6667 11.3335ZM12.6667 11.3335V11.6668C12.6667 12.2191 13.1145 12.6668 13.6667 12.6668C14.219 12.6668 14.6667 12.2191 14.6667 11.6668V11.3335C14.6667 9.67663 13.3236 8.3335 11.6667 8.3335C10.0099 8.3335 8.66675 9.67663 8.66675 11.3335C8.66675 12.9904 10.0099 14.3335 11.6667 14.3335" stroke="#0072C6" stroke-width="1.5" stroke-linecap="round" stroke-linejoin="round"/>
</svg>
