<svg width="16" height="16" viewBox="0 0 16 16" fill="none" xmlns="http://www.w3.org/2000/svg">
<path d="M12.3332 4.00016C12.2792 3.05386 12.1312 2.45126 11.725 2.01692C11.0858 1.3335 10.0572 1.3335 7.99984 1.3335C5.9425 1.3335 4.91383 1.3335 4.2747 2.01692C3.8685 2.45126 3.72046 3.05386 3.6665 4.00016M12.3332 12.0002C12.2792 12.9464 12.1312 13.549 11.725 13.9834C11.0858 14.6668 10.0572 14.6668 7.99984 14.6668C5.9425 14.6668 4.91383 14.6668 4.2747 13.9834C3.86849 13.549 3.72046 12.9464 3.6665 12.0002" stroke="#0072C6" stroke-width="1.5" stroke-linecap="round"/>
<path d="M6 1.3335L6.05933 1.68951C6.18792 2.46102 6.25221 2.84678 6.51679 3.08152C6.7928 3.32639 7.18407 3.3335 8 3.3335C8.81593 3.3335 9.2072 3.32639 9.4832 3.08152C9.7478 2.84678 9.81207 2.46102 9.94067 1.68951L10 1.3335" stroke="#0072C6" stroke-width="1.5" stroke-linejoin="round"/>
<path d="M7.3335 12.6665H8.66683" stroke="#0072C6" stroke-width="1.5" stroke-linecap="round" stroke-linejoin="round"/>
<path d="M2.6665 5.6665C2.6665 5.6665 3.33317 5.89717 3.33317 6.5415C3.33317 7.18584 2.6665 7.3555 2.6665 7.99984C2.6665 8.64417 3.33317 8.81384 3.33317 9.45817C3.33317 10.1025 2.6665 10.3332 2.6665 10.3332" stroke="#0072C6" stroke-width="1.5" stroke-linecap="round" stroke-linejoin="round"/>
<path d="M13.3332 5.6665C13.3332 5.6665 12.6665 5.89717 12.6665 6.5415C12.6665 7.18584 13.3332 7.3555 13.3332 7.99984C13.3332 8.64417 12.6665 8.81384 12.6665 9.45817C12.6665 10.1025 13.3332 10.3332 13.3332 10.3332" stroke="#0072C6" stroke-width="1.5" stroke-linecap="round" stroke-linejoin="round"/>
</svg>
