<svg width="57" height="56" viewBox="0 0 57 56" fill="none" xmlns="http://www.w3.org/2000/svg">
<rect x="2" y="1.5" width="53" height="53" rx="26.5" fill="#039C2B"/>
<rect x="2" y="1.5" width="53" height="53" rx="26.5" stroke="#09C53B" stroke-width="3"/>
<path d="M30.7618 19.5994C29.6956 18.5331 29.1625 18 28.5 18C27.8375 18 27.3044 18.5331 26.2381 19.5994C25.5983 20.2392 24.9643 20.5363 24.0521 20.5363C23.2556 20.5363 22.1224 20.3818 21.5 21.0094C20.8825 21.6321 21.0363 22.7607 21.0363 23.5521C21.0363 24.4643 20.7392 25.0983 20.0993 25.7382C19.0331 26.8044 18.5 27.3375 18.5 28C18.5 28.6624 19.0331 29.1956 20.0994 30.2618C20.8162 30.9786 21.0363 31.4414 21.0363 32.4479C21.0363 33.2444 20.8818 34.3776 21.5095 35C22.1322 35.6175 23.2607 35.4637 24.0521 35.4637C25.0235 35.4637 25.4913 35.6537 26.1846 36.347C26.7749 36.9374 27.5663 38 28.5 38C29.4337 38 30.2251 36.9374 30.8154 36.347C31.5087 35.6537 31.9765 35.4637 32.9479 35.4637C33.7393 35.4637 34.8678 35.6175 35.4905 35M35.4905 35C36.1182 34.3776 35.9637 33.2444 35.9637 32.4479C35.9637 31.4414 36.1838 30.9786 36.9006 30.2618C37.9669 29.1956 38.5 28.6624 38.5 28C38.5 27.3375 37.9669 26.8044 36.9006 25.7382M35.4905 35H35.5" stroke="white" stroke-width="2" stroke-linecap="round" stroke-linejoin="round"/>
<path d="M25 25.5L28.5 29L37.5002 19" stroke="white" stroke-width="1.5" stroke-linecap="round" stroke-linejoin="round"/>
</svg>
