<svg width="152" height="23" viewBox="0 0 152 23" fill="none" xmlns="http://www.w3.org/2000/svg">
<path d="M16.2656 10.543V10.7656C16.25 11.4219 16.1797 12.1016 16.0547 12.8047C15.9375 13.5078 15.7695 14.2109 15.5508 14.9141C15.332 15.6172 15.0703 16.3125 14.7656 17C14.4609 17.6875 14.1172 18.3438 13.7344 18.9688C13.3594 19.6016 12.9531 20.1914 12.5156 20.7383C12.0781 21.293 11.6172 21.7812 11.1328 22.2031L9.38672 21.1953C9.66016 20.7344 9.90625 20.2305 10.125 19.6836C10.3516 19.1445 10.5547 18.5781 10.7344 17.9844C10.9141 17.3906 11.0664 16.7812 11.1914 16.1562C11.3242 15.5312 11.4336 14.9102 11.5195 14.293C11.6055 13.6758 11.668 13.0703 11.707 12.4766C11.7539 11.875 11.7773 11.3047 11.7773 10.7656C11.7773 10.3438 11.7734 9.86719 11.7656 9.33594C11.7656 8.79688 11.7344 8.25 11.6719 7.69531C11.6172 7.14062 11.5234 6.60156 11.3906 6.07812C11.2578 5.54688 11.0586 5.07422 10.793 4.66016C10.5352 4.24609 10.1992 3.91406 9.78516 3.66406C9.37891 3.41406 8.87109 3.28906 8.26172 3.28906C7.72266 3.28906 7.25781 3.38281 6.86719 3.57031C6.48438 3.75 6.15625 3.99609 5.88281 4.30859C5.61719 4.61328 5.40234 4.96875 5.23828 5.375C5.08203 5.78125 4.95703 6.21094 4.86328 6.66406C4.77734 7.10938 4.71875 7.5625 4.6875 8.02344C4.66406 8.47656 4.65234 8.90625 4.65234 9.3125V12.582H9.70312V14.5156H4.65234V18.6172H0V10.0391C0 8.8125 0.195312 7.67188 0.585938 6.61719C0.976562 5.5625 1.52734 4.64844 2.23828 3.875C2.95703 3.09375 3.81641 2.48438 4.81641 2.04688C5.82422 1.60156 6.94531 1.37891 8.17969 1.37891C9.01562 1.37891 9.79688 1.5 10.5234 1.74219C11.2578 1.97656 11.9258 2.30469 12.5273 2.72656C13.1289 3.14062 13.6641 3.63672 14.1328 4.21484C14.6094 4.78516 15.0039 5.41016 15.3164 6.08984C15.6367 6.76953 15.8789 7.48828 16.043 8.24609C16.207 9.00391 16.2812 9.76953 16.2656 10.543Z" fill="white"/>
<path d="M34.6289 5.92578L32.625 6.76953C32.4688 6.26172 32.2578 5.79688 31.9922 5.375C31.7344 4.95312 31.4219 4.59375 31.0547 4.29688C30.6953 3.99219 30.2852 3.75781 29.8242 3.59375C29.3633 3.42188 28.8594 3.33594 28.3125 3.33594C27.7266 3.33594 27.1875 3.43359 26.6953 3.62891C26.2109 3.82422 25.7734 4.08984 25.3828 4.42578C25 4.75391 24.6641 5.14062 24.375 5.58594C24.0859 6.03125 23.8438 6.50781 23.6484 7.01562C23.4609 7.51562 23.3164 8.03516 23.2148 8.57422C23.1211 9.11328 23.0742 9.64062 23.0742 10.1562C23.0742 10.9766 23.168 11.793 23.3555 12.6055C23.5508 13.418 23.8555 14.1484 24.2695 14.7969C24.6914 15.4453 25.2344 15.9727 25.8984 16.3789C26.5625 16.7773 27.3672 16.9766 28.3125 16.9766C28.8281 16.9766 29.2305 16.8633 29.5195 16.6367C29.8086 16.4023 29.9531 15.9961 29.9531 15.418V10.2383H34.6055V18.6172H33.2578L32.4375 17.293C31.6875 17.8633 30.8594 18.2852 29.9531 18.5586C29.0547 18.8242 28.1367 18.957 27.1992 18.957C26.3711 18.957 25.5742 18.8555 24.8086 18.6523C24.0508 18.4492 23.3438 18.1602 22.6875 17.7852C22.0312 17.4102 21.4336 16.957 20.8945 16.4258C20.3633 15.8945 19.9062 15.3047 19.5234 14.6562C19.1484 14.0078 18.8555 13.3047 18.6445 12.5469C18.4414 11.7812 18.3398 10.9844 18.3398 10.1562C18.3398 9.32812 18.4414 8.53516 18.6445 7.77734C18.8555 7.01172 19.1484 6.30469 19.5234 5.65625C19.9062 5 20.3633 4.40625 20.8945 3.875C21.4336 3.34375 22.0312 2.89062 22.6875 2.51562C23.3438 2.14062 24.0508 1.85156 24.8086 1.64844C25.5742 1.44531 26.3711 1.34375 27.1992 1.34375C27.9961 1.34375 28.7734 1.4375 29.5312 1.625C30.2969 1.8125 31.0078 2.09766 31.6641 2.48047C32.3203 2.85547 32.9023 3.33203 33.4102 3.91016C33.9258 4.48047 34.332 5.15234 34.6289 5.92578Z" fill="white"/>
<path d="M45.5273 11.2461H37.6523V9.08984H45.5273V11.2461Z" fill="white"/>
<path d="M61.0195 18.6172H48.9023V1.74219H61.0195V3.89844H53.5547V9.11328H59.3203V11.2578H53.5547V16.4609H61.0195V18.6172Z" fill="white"/>
<path d="M74.3672 18.6172H62.9062V17.0469L69.9961 6.65234H62.9062V5.08203H74.3672V6.65234L67.2773 17.0469H74.3672V18.6172Z" fill="white"/>
<path d="M79.7461 12.1953C80.2305 12.3047 80.7148 12.3906 81.1992 12.4531C81.6836 12.5156 82.1719 12.5469 82.6641 12.5469C83.1797 12.5469 83.6562 12.5 84.0938 12.4062C84.5391 12.3047 84.9219 12.1406 85.2422 11.9141C85.5703 11.6797 85.8281 11.3711 86.0156 10.9883C86.2031 10.6055 86.2969 10.1289 86.2969 9.55859C86.2969 9.09766 86.2344 8.67578 86.1094 8.29297C85.9844 7.91016 85.7969 7.58203 85.5469 7.30859C85.3047 7.03516 85.0039 6.82422 84.6445 6.67578C84.2852 6.51953 83.8672 6.44141 83.3906 6.44141C82.9453 6.44141 82.543 6.52344 82.1836 6.6875C81.832 6.85156 81.5195 7.07422 81.2461 7.35547C80.9805 7.62891 80.75 7.94922 80.5547 8.31641C80.3672 8.68359 80.2109 9.06641 80.0859 9.46484C79.9609 9.86328 79.8711 10.2656 79.8164 10.6719C79.7617 11.0781 79.7344 11.4609 79.7344 11.8203C79.7344 11.8828 79.7344 11.9453 79.7344 12.0078C79.7344 12.0703 79.7383 12.1328 79.7461 12.1953ZM89.5078 9.52344C89.5078 10.0781 89.418 10.5742 89.2383 11.0117C89.0586 11.4414 88.8125 11.8203 88.5 12.1484C88.1953 12.4766 87.8398 12.7539 87.4336 12.9805C87.0273 13.207 86.5938 13.3945 86.1328 13.543C85.6719 13.6836 85.1953 13.7852 84.7031 13.8477C84.2188 13.9102 83.7461 13.9414 83.2852 13.9414C82.6992 13.9414 82.1211 13.9023 81.5508 13.8242C80.9805 13.7383 80.418 13.6055 79.8633 13.4258C79.9492 13.9414 80.0859 14.4336 80.2734 14.9023C80.4609 15.3633 80.7109 15.7695 81.0234 16.1211C81.3359 16.4648 81.7188 16.7383 82.1719 16.9414C82.6328 17.1445 83.1758 17.2461 83.8008 17.2461C84.2148 17.2461 84.6094 17.1836 84.9844 17.0586C85.3594 16.9336 85.7031 16.7578 86.0156 16.5312C86.3281 16.3047 86.6016 16.0352 86.8359 15.7227C87.0781 15.4102 87.2734 15.0625 87.4219 14.6797L89.1328 15.3125C88.875 15.9297 88.5195 16.4648 88.0664 16.918C87.6211 17.3633 87.1133 17.7344 86.543 18.0312C85.9805 18.3203 85.3789 18.5352 84.7383 18.6758C84.1055 18.8164 83.4766 18.8867 82.8516 18.8867C81.8203 18.8867 80.8672 18.7148 79.9922 18.3711C79.1172 18.0195 78.3633 17.5312 77.7305 16.9062C77.0977 16.2812 76.6016 15.5352 76.2422 14.668C75.8828 13.8008 75.7031 12.8516 75.7031 11.8203C75.7031 10.7891 75.8828 9.83984 76.2422 8.97266C76.6016 8.10547 77.0977 7.35938 77.7305 6.73438C78.3633 6.10938 79.1172 5.625 79.9922 5.28125C80.8672 4.92969 81.8203 4.75391 82.8516 4.75391C83.3516 4.75391 83.8633 4.78906 84.3867 4.85938C84.9102 4.92969 85.418 5.04297 85.9102 5.19922C86.4023 5.34766 86.8672 5.54297 87.3047 5.78516C87.7422 6.02734 88.1211 6.32812 88.4414 6.6875C88.7695 7.03906 89.0273 7.44922 89.2148 7.91797C89.4102 8.38672 89.5078 8.92188 89.5078 9.52344Z" fill="white"/>
<path d="M105.82 10.8594C105.82 11.7734 105.707 12.7266 105.48 13.7188C105.262 14.7109 104.953 15.6836 104.555 16.6367C104.156 17.5898 103.68 18.4844 103.125 19.3203C102.57 20.1641 101.961 20.8906 101.297 21.5L99.8086 20.6914C100.02 20.3008 100.219 19.8633 100.406 19.3789C100.594 18.8945 100.762 18.3828 100.91 17.8438C101.066 17.2969 101.203 16.7344 101.32 16.1562C101.445 15.5781 101.547 15.0078 101.625 14.4453C101.711 13.875 101.773 13.3242 101.812 12.793C101.859 12.2539 101.883 11.7539 101.883 11.293C101.883 10.9883 101.871 10.6641 101.848 10.3203C101.824 9.96875 101.773 9.62109 101.695 9.27734C101.625 8.92578 101.527 8.58984 101.402 8.26953C101.277 7.94922 101.109 7.66797 100.898 7.42578C100.695 7.18359 100.445 6.98828 100.148 6.83984C99.8594 6.69141 99.5156 6.61719 99.1172 6.61719C98.7266 6.61719 98.3789 6.70703 98.0742 6.88672C97.7695 7.05859 97.5 7.28906 97.2656 7.57812C97.0312 7.85938 96.8281 8.18359 96.6562 8.55078C96.4922 8.91797 96.3555 9.29688 96.2461 9.6875C96.1445 10.0703 96.0703 10.4492 96.0234 10.8242C95.9766 11.1992 95.9531 11.5352 95.9531 11.832V18.6172H91.9805V5.08203H93.5039L95.3203 8.23438C95.5391 7.71094 95.8125 7.23438 96.1406 6.80469C96.4688 6.375 96.8398 6.00781 97.2539 5.70312C97.668 5.39844 98.125 5.16406 98.625 5C99.1328 4.83594 99.6797 4.75391 100.266 4.75391C101.203 4.75391 102.02 4.90625 102.715 5.21094C103.41 5.51562 103.988 5.94141 104.449 6.48828C104.91 7.02734 105.254 7.67188 105.48 8.42188C105.707 9.16406 105.82 9.97656 105.82 10.8594Z" fill="white"/>
<path d="M122.062 18.6172H118.102V17C117.633 17.6406 117.066 18.1172 116.402 18.4297C115.746 18.7344 115.023 18.8867 114.234 18.8867C113.203 18.8867 112.281 18.7031 111.469 18.3359C110.656 17.9688 109.969 17.4688 109.406 16.8359C108.844 16.1953 108.414 15.4453 108.117 14.5859C107.82 13.7266 107.672 12.8047 107.672 11.8203C107.672 10.8359 107.82 9.91406 108.117 9.05469C108.414 8.19531 108.844 7.44922 109.406 6.81641C109.969 6.17578 110.656 5.67188 111.469 5.30469C112.281 4.9375 113.203 4.75391 114.234 4.75391C114.758 4.75391 115.254 4.83203 115.723 4.98828C116.199 5.14453 116.633 5.36719 117.023 5.65625C117.422 5.9375 117.77 6.28125 118.066 6.6875C118.371 7.08594 118.609 7.53125 118.781 8.02344L120.539 5.08203H122.062V18.6172ZM118.078 11.8203C118.078 11.4688 118.059 11.0977 118.02 10.707C117.988 10.3164 117.93 9.92969 117.844 9.54688C117.758 9.16406 117.637 8.80078 117.48 8.45703C117.332 8.10547 117.137 7.79688 116.895 7.53125C116.66 7.25781 116.375 7.04297 116.039 6.88672C115.703 6.73047 115.312 6.65234 114.867 6.65234C114.422 6.65234 114.035 6.73438 113.707 6.89844C113.379 7.05469 113.098 7.26953 112.863 7.54297C112.629 7.80859 112.434 8.11719 112.277 8.46875C112.129 8.82031 112.012 9.1875 111.926 9.57031C111.84 9.95312 111.777 10.3398 111.738 10.7305C111.707 11.1133 111.691 11.4766 111.691 11.8203C111.691 12.1641 111.707 12.5312 111.738 12.9219C111.777 13.3125 111.84 13.6992 111.926 14.082C112.012 14.4648 112.129 14.832 112.277 15.1836C112.434 15.5352 112.629 15.8477 112.863 16.1211C113.098 16.3867 113.379 16.6016 113.707 16.7656C114.035 16.9219 114.422 17 114.867 17C115.273 17 115.633 16.918 115.945 16.7539C116.266 16.582 116.543 16.3555 116.777 16.0742C117.02 15.793 117.223 15.4727 117.387 15.1133C117.551 14.7539 117.684 14.3828 117.785 14C117.887 13.6172 117.961 13.2383 118.008 12.8633C118.055 12.4805 118.078 12.1328 118.078 11.8203Z" fill="white"/>
<path d="M136.887 6.27734L134.66 9.96875C134.566 9.65625 134.445 9.30469 134.297 8.91406C134.148 8.52344 133.965 8.16016 133.746 7.82422C133.527 7.48047 133.266 7.19531 132.961 6.96875C132.656 6.73438 132.305 6.61719 131.906 6.61719C131.539 6.61719 131.219 6.71094 130.945 6.89844C130.68 7.08594 130.453 7.33203 130.266 7.63672C130.078 7.93359 129.922 8.27344 129.797 8.65625C129.68 9.03125 129.586 9.41406 129.516 9.80469C129.453 10.1875 129.41 10.5586 129.387 10.918C129.363 11.2695 129.352 11.5742 129.352 11.832V18.6172H125.379V5.08203H126.902L128.508 8.23438C128.727 7.72656 128.977 7.26172 129.258 6.83984C129.539 6.41016 129.863 6.04297 130.23 5.73828C130.598 5.42578 131.012 5.18359 131.473 5.01172C131.941 4.83984 132.469 4.75391 133.055 4.75391C133.359 4.75391 133.699 4.78125 134.074 4.83594C134.449 4.88281 134.816 4.96875 135.176 5.09375C135.535 5.21094 135.867 5.36719 136.172 5.5625C136.477 5.75781 136.715 5.99609 136.887 6.27734Z" fill="white"/>
<path d="M151.887 18.6172H150.363L148.605 15.6758C148.434 16.168 148.195 16.6133 147.891 17.0117C147.594 17.4102 147.246 17.7539 146.848 18.043C146.457 18.3242 146.023 18.543 145.547 18.6992C145.078 18.8555 144.582 18.9336 144.059 18.9336C143.027 18.9336 142.105 18.75 141.293 18.3828C140.48 18.0156 139.793 17.5156 139.23 16.8828C138.668 16.2422 138.238 15.4922 137.941 14.6328C137.645 13.7734 137.496 12.8516 137.496 11.8672C137.496 10.8828 137.645 9.96094 137.941 9.10156C138.238 8.24219 138.668 7.49609 139.23 6.86328C139.793 6.23047 140.48 5.73047 141.293 5.36328C142.105 4.99609 143.027 4.8125 144.059 4.8125C144.848 4.8125 145.57 4.96484 146.227 5.26953C146.891 5.57422 147.457 6.05078 147.926 6.69922V0.101562H151.887V18.6172ZM147.902 11.8672C147.902 11.5547 147.879 11.2109 147.832 10.8359C147.785 10.4609 147.711 10.082 147.609 9.69922C147.508 9.31641 147.375 8.94531 147.211 8.58594C147.047 8.22656 146.844 7.90625 146.602 7.625C146.367 7.34375 146.09 7.12109 145.77 6.95703C145.457 6.78516 145.098 6.69922 144.691 6.69922C144.246 6.69922 143.859 6.78125 143.531 6.94531C143.203 7.10156 142.922 7.31641 142.688 7.58984C142.453 7.85547 142.258 8.16406 142.102 8.51562C141.953 8.86719 141.836 9.23438 141.75 9.61719C141.664 10 141.602 10.3867 141.562 10.7773C141.531 11.1602 141.516 11.5234 141.516 11.8672C141.516 12.2109 141.531 12.5781 141.562 12.9688C141.602 13.3516 141.664 13.7344 141.75 14.1172C141.836 14.5 141.953 14.8711 142.102 15.2305C142.258 15.582 142.453 15.8945 142.688 16.168C142.922 16.4336 143.203 16.6484 143.531 16.8125C143.859 16.9688 144.246 17.0469 144.691 17.0469C145.137 17.0469 145.527 16.9688 145.863 16.8125C146.199 16.6562 146.484 16.4453 146.719 16.1797C146.961 15.9062 147.156 15.5977 147.305 15.2539C147.461 14.9023 147.582 14.5352 147.668 14.1523C147.754 13.7617 147.812 13.3711 147.844 12.9805C147.883 12.5898 147.902 12.2188 147.902 11.8672Z" fill="white"/>
</svg>
