<svg width="152" height="23" viewBox="0 0 152 23" fill="none" xmlns="http://www.w3.org/2000/svg">
<path d="M16.2656 10.4414V10.6641C16.25 11.3203 16.1797 12 16.0547 12.7031C15.9375 13.4062 15.7695 14.1094 15.5508 14.8125C15.332 15.5156 15.0703 16.2109 14.7656 16.8984C14.4609 17.5859 14.1172 18.2422 13.7344 18.8672C13.3594 19.5 12.9531 20.0898 12.5156 20.6367C12.0781 21.1914 11.6172 21.6797 11.1328 22.1016L9.38672 21.0938C9.66016 20.6328 9.90625 20.1289 10.125 19.582C10.3516 19.043 10.5547 18.4766 10.7344 17.8828C10.9141 17.2891 11.0664 16.6797 11.1914 16.0547C11.3242 15.4297 11.4336 14.8086 11.5195 14.1914C11.6055 13.5742 11.668 12.9688 11.707 12.375C11.7539 11.7734 11.7773 11.2031 11.7773 10.6641C11.7773 10.2422 11.7734 9.76562 11.7656 9.23438C11.7656 8.69531 11.7344 8.14844 11.6719 7.59375C11.6172 7.03906 11.5234 6.5 11.3906 5.97656C11.2578 5.44531 11.0586 4.97266 10.793 4.55859C10.5352 4.14453 10.1992 3.8125 9.78516 3.5625C9.37891 3.3125 8.87109 3.1875 8.26172 3.1875C7.72266 3.1875 7.25781 3.28125 6.86719 3.46875C6.48438 3.64844 6.15625 3.89453 5.88281 4.20703C5.61719 4.51172 5.40234 4.86719 5.23828 5.27344C5.08203 5.67969 4.95703 6.10938 4.86328 6.5625C4.77734 7.00781 4.71875 7.46094 4.6875 7.92188C4.66406 8.375 4.65234 8.80469 4.65234 9.21094V12.4805H9.70312V14.4141H4.65234V18.5156H0V9.9375C0 8.71094 0.195312 7.57031 0.585938 6.51562C0.976562 5.46094 1.52734 4.54688 2.23828 3.77344C2.95703 2.99219 3.81641 2.38281 4.81641 1.94531C5.82422 1.5 6.94531 1.27734 8.17969 1.27734C9.01562 1.27734 9.79688 1.39844 10.5234 1.64062C11.2578 1.875 11.9258 2.20312 12.5273 2.625C13.1289 3.03906 13.6641 3.53516 14.1328 4.11328C14.6094 4.68359 15.0039 5.30859 15.3164 5.98828C15.6367 6.66797 15.8789 7.38672 16.043 8.14453C16.207 8.90234 16.2812 9.66797 16.2656 10.4414Z" fill="#2A2A2A"/>
<path d="M34.6289 5.82422L32.625 6.66797C32.4688 6.16016 32.2578 5.69531 31.9922 5.27344C31.7344 4.85156 31.4219 4.49219 31.0547 4.19531C30.6953 3.89062 30.2852 3.65625 29.8242 3.49219C29.3633 3.32031 28.8594 3.23438 28.3125 3.23438C27.7266 3.23438 27.1875 3.33203 26.6953 3.52734C26.2109 3.72266 25.7734 3.98828 25.3828 4.32422C25 4.65234 24.6641 5.03906 24.375 5.48438C24.0859 5.92969 23.8438 6.40625 23.6484 6.91406C23.4609 7.41406 23.3164 7.93359 23.2148 8.47266C23.1211 9.01172 23.0742 9.53906 23.0742 10.0547C23.0742 10.875 23.168 11.6914 23.3555 12.5039C23.5508 13.3164 23.8555 14.0469 24.2695 14.6953C24.6914 15.3438 25.2344 15.8711 25.8984 16.2773C26.5625 16.6758 27.3672 16.875 28.3125 16.875C28.8281 16.875 29.2305 16.7617 29.5195 16.5352C29.8086 16.3008 29.9531 15.8945 29.9531 15.3164V10.1367H34.6055V18.5156H33.2578L32.4375 17.1914C31.6875 17.7617 30.8594 18.1836 29.9531 18.457C29.0547 18.7227 28.1367 18.8555 27.1992 18.8555C26.3711 18.8555 25.5742 18.7539 24.8086 18.5508C24.0508 18.3477 23.3438 18.0586 22.6875 17.6836C22.0312 17.3086 21.4336 16.8555 20.8945 16.3242C20.3633 15.793 19.9062 15.2031 19.5234 14.5547C19.1484 13.9062 18.8555 13.2031 18.6445 12.4453C18.4414 11.6797 18.3398 10.8828 18.3398 10.0547C18.3398 9.22656 18.4414 8.43359 18.6445 7.67578C18.8555 6.91016 19.1484 6.20312 19.5234 5.55469C19.9062 4.89844 20.3633 4.30469 20.8945 3.77344C21.4336 3.24219 22.0312 2.78906 22.6875 2.41406C23.3438 2.03906 24.0508 1.75 24.8086 1.54688C25.5742 1.34375 26.3711 1.24219 27.1992 1.24219C27.9961 1.24219 28.7734 1.33594 29.5312 1.52344C30.2969 1.71094 31.0078 1.99609 31.6641 2.37891C32.3203 2.75391 32.9023 3.23047 33.4102 3.80859C33.9258 4.37891 34.332 5.05078 34.6289 5.82422Z" fill="#2A2A2A"/>
<path d="M45.5273 11.1445H37.6523V8.98828H45.5273V11.1445Z" fill="#2A2A2A"/>
<path d="M61.0195 18.5156H48.9023V1.64062H61.0195V3.79688H53.5547V9.01172H59.3203V11.1562H53.5547V16.3594H61.0195V18.5156Z" fill="#2A2A2A"/>
<path d="M74.3672 18.5156H62.9062V16.9453L69.9961 6.55078H62.9062V4.98047H74.3672V6.55078L67.2773 16.9453H74.3672V18.5156Z" fill="#2A2A2A"/>
<path d="M79.7461 12.0938C80.2305 12.2031 80.7148 12.2891 81.1992 12.3516C81.6836 12.4141 82.1719 12.4453 82.6641 12.4453C83.1797 12.4453 83.6562 12.3984 84.0938 12.3047C84.5391 12.2031 84.9219 12.0391 85.2422 11.8125C85.5703 11.5781 85.8281 11.2695 86.0156 10.8867C86.2031 10.5039 86.2969 10.0273 86.2969 9.45703C86.2969 8.99609 86.2344 8.57422 86.1094 8.19141C85.9844 7.80859 85.7969 7.48047 85.5469 7.20703C85.3047 6.93359 85.0039 6.72266 84.6445 6.57422C84.2852 6.41797 83.8672 6.33984 83.3906 6.33984C82.9453 6.33984 82.543 6.42188 82.1836 6.58594C81.832 6.75 81.5195 6.97266 81.2461 7.25391C80.9805 7.52734 80.75 7.84766 80.5547 8.21484C80.3672 8.58203 80.2109 8.96484 80.0859 9.36328C79.9609 9.76172 79.8711 10.1641 79.8164 10.5703C79.7617 10.9766 79.7344 11.3594 79.7344 11.7188C79.7344 11.7812 79.7344 11.8438 79.7344 11.9062C79.7344 11.9688 79.7383 12.0312 79.7461 12.0938ZM89.5078 9.42188C89.5078 9.97656 89.418 10.4727 89.2383 10.9102C89.0586 11.3398 88.8125 11.7188 88.5 12.0469C88.1953 12.375 87.8398 12.6523 87.4336 12.8789C87.0273 13.1055 86.5938 13.293 86.1328 13.4414C85.6719 13.582 85.1953 13.6836 84.7031 13.7461C84.2188 13.8086 83.7461 13.8398 83.2852 13.8398C82.6992 13.8398 82.1211 13.8008 81.5508 13.7227C80.9805 13.6367 80.418 13.5039 79.8633 13.3242C79.9492 13.8398 80.0859 14.332 80.2734 14.8008C80.4609 15.2617 80.7109 15.668 81.0234 16.0195C81.3359 16.3633 81.7188 16.6367 82.1719 16.8398C82.6328 17.043 83.1758 17.1445 83.8008 17.1445C84.2148 17.1445 84.6094 17.082 84.9844 16.957C85.3594 16.832 85.7031 16.6562 86.0156 16.4297C86.3281 16.2031 86.6016 15.9336 86.8359 15.6211C87.0781 15.3086 87.2734 14.9609 87.4219 14.5781L89.1328 15.2109C88.875 15.8281 88.5195 16.3633 88.0664 16.8164C87.6211 17.2617 87.1133 17.6328 86.543 17.9297C85.9805 18.2188 85.3789 18.4336 84.7383 18.5742C84.1055 18.7148 83.4766 18.7852 82.8516 18.7852C81.8203 18.7852 80.8672 18.6133 79.9922 18.2695C79.1172 17.918 78.3633 17.4297 77.7305 16.8047C77.0977 16.1797 76.6016 15.4336 76.2422 14.5664C75.8828 13.6992 75.7031 12.75 75.7031 11.7188C75.7031 10.6875 75.8828 9.73828 76.2422 8.87109C76.6016 8.00391 77.0977 7.25781 77.7305 6.63281C78.3633 6.00781 79.1172 5.52344 79.9922 5.17969C80.8672 4.82812 81.8203 4.65234 82.8516 4.65234C83.3516 4.65234 83.8633 4.6875 84.3867 4.75781C84.9102 4.82812 85.418 4.94141 85.9102 5.09766C86.4023 5.24609 86.8672 5.44141 87.3047 5.68359C87.7422 5.92578 88.1211 6.22656 88.4414 6.58594C88.7695 6.9375 89.0273 7.34766 89.2148 7.81641C89.4102 8.28516 89.5078 8.82031 89.5078 9.42188Z" fill="#2A2A2A"/>
<path d="M105.82 10.7578C105.82 11.6719 105.707 12.625 105.48 13.6172C105.262 14.6094 104.953 15.582 104.555 16.5352C104.156 17.4883 103.68 18.3828 103.125 19.2188C102.57 20.0625 101.961 20.7891 101.297 21.3984L99.8086 20.5898C100.02 20.1992 100.219 19.7617 100.406 19.2773C100.594 18.793 100.762 18.2812 100.91 17.7422C101.066 17.1953 101.203 16.6328 101.32 16.0547C101.445 15.4766 101.547 14.9062 101.625 14.3438C101.711 13.7734 101.773 13.2227 101.812 12.6914C101.859 12.1523 101.883 11.6523 101.883 11.1914C101.883 10.8867 101.871 10.5625 101.848 10.2188C101.824 9.86719 101.773 9.51953 101.695 9.17578C101.625 8.82422 101.527 8.48828 101.402 8.16797C101.277 7.84766 101.109 7.56641 100.898 7.32422C100.695 7.08203 100.445 6.88672 100.148 6.73828C99.8594 6.58984 99.5156 6.51562 99.1172 6.51562C98.7266 6.51562 98.3789 6.60547 98.0742 6.78516C97.7695 6.95703 97.5 7.1875 97.2656 7.47656C97.0312 7.75781 96.8281 8.08203 96.6562 8.44922C96.4922 8.81641 96.3555 9.19531 96.2461 9.58594C96.1445 9.96875 96.0703 10.3477 96.0234 10.7227C95.9766 11.0977 95.9531 11.4336 95.9531 11.7305V18.5156H91.9805V4.98047H93.5039L95.3203 8.13281C95.5391 7.60938 95.8125 7.13281 96.1406 6.70312C96.4688 6.27344 96.8398 5.90625 97.2539 5.60156C97.668 5.29688 98.125 5.0625 98.625 4.89844C99.1328 4.73438 99.6797 4.65234 100.266 4.65234C101.203 4.65234 102.02 4.80469 102.715 5.10938C103.41 5.41406 103.988 5.83984 104.449 6.38672C104.91 6.92578 105.254 7.57031 105.48 8.32031C105.707 9.0625 105.82 9.875 105.82 10.7578Z" fill="#2A2A2A"/>
<path d="M122.062 18.5156H118.102V16.8984C117.633 17.5391 117.066 18.0156 116.402 18.3281C115.746 18.6328 115.023 18.7852 114.234 18.7852C113.203 18.7852 112.281 18.6016 111.469 18.2344C110.656 17.8672 109.969 17.3672 109.406 16.7344C108.844 16.0938 108.414 15.3438 108.117 14.4844C107.82 13.625 107.672 12.7031 107.672 11.7188C107.672 10.7344 107.82 9.8125 108.117 8.95312C108.414 8.09375 108.844 7.34766 109.406 6.71484C109.969 6.07422 110.656 5.57031 111.469 5.20312C112.281 4.83594 113.203 4.65234 114.234 4.65234C114.758 4.65234 115.254 4.73047 115.723 4.88672C116.199 5.04297 116.633 5.26562 117.023 5.55469C117.422 5.83594 117.77 6.17969 118.066 6.58594C118.371 6.98438 118.609 7.42969 118.781 7.92188L120.539 4.98047H122.062V18.5156ZM118.078 11.7188C118.078 11.3672 118.059 10.9961 118.02 10.6055C117.988 10.2148 117.93 9.82812 117.844 9.44531C117.758 9.0625 117.637 8.69922 117.48 8.35547C117.332 8.00391 117.137 7.69531 116.895 7.42969C116.66 7.15625 116.375 6.94141 116.039 6.78516C115.703 6.62891 115.312 6.55078 114.867 6.55078C114.422 6.55078 114.035 6.63281 113.707 6.79688C113.379 6.95312 113.098 7.16797 112.863 7.44141C112.629 7.70703 112.434 8.01562 112.277 8.36719C112.129 8.71875 112.012 9.08594 111.926 9.46875C111.84 9.85156 111.777 10.2383 111.738 10.6289C111.707 11.0117 111.691 11.375 111.691 11.7188C111.691 12.0625 111.707 12.4297 111.738 12.8203C111.777 13.2109 111.84 13.5977 111.926 13.9805C112.012 14.3633 112.129 14.7305 112.277 15.082C112.434 15.4336 112.629 15.7461 112.863 16.0195C113.098 16.2852 113.379 16.5 113.707 16.6641C114.035 16.8203 114.422 16.8984 114.867 16.8984C115.273 16.8984 115.633 16.8164 115.945 16.6523C116.266 16.4805 116.543 16.2539 116.777 15.9727C117.02 15.6914 117.223 15.3711 117.387 15.0117C117.551 14.6523 117.684 14.2812 117.785 13.8984C117.887 13.5156 117.961 13.1367 118.008 12.7617C118.055 12.3789 118.078 12.0312 118.078 11.7188Z" fill="#2A2A2A"/>
<path d="M136.887 6.17578L134.66 9.86719C134.566 9.55469 134.445 9.20312 134.297 8.8125C134.148 8.42188 133.965 8.05859 133.746 7.72266C133.527 7.37891 133.266 7.09375 132.961 6.86719C132.656 6.63281 132.305 6.51562 131.906 6.51562C131.539 6.51562 131.219 6.60938 130.945 6.79688C130.68 6.98438 130.453 7.23047 130.266 7.53516C130.078 7.83203 129.922 8.17188 129.797 8.55469C129.68 8.92969 129.586 9.3125 129.516 9.70312C129.453 10.0859 129.41 10.457 129.387 10.8164C129.363 11.168 129.352 11.4727 129.352 11.7305V18.5156H125.379V4.98047H126.902L128.508 8.13281C128.727 7.625 128.977 7.16016 129.258 6.73828C129.539 6.30859 129.863 5.94141 130.23 5.63672C130.598 5.32422 131.012 5.08203 131.473 4.91016C131.941 4.73828 132.469 4.65234 133.055 4.65234C133.359 4.65234 133.699 4.67969 134.074 4.73438C134.449 4.78125 134.816 4.86719 135.176 4.99219C135.535 5.10938 135.867 5.26562 136.172 5.46094C136.477 5.65625 136.715 5.89453 136.887 6.17578Z" fill="#2A2A2A"/>
<path d="M151.887 18.5156H150.363L148.605 15.5742C148.434 16.0664 148.195 16.5117 147.891 16.9102C147.594 17.3086 147.246 17.6523 146.848 17.9414C146.457 18.2227 146.023 18.4414 145.547 18.5977C145.078 18.7539 144.582 18.832 144.059 18.832C143.027 18.832 142.105 18.6484 141.293 18.2812C140.48 17.9141 139.793 17.4141 139.23 16.7812C138.668 16.1406 138.238 15.3906 137.941 14.5312C137.645 13.6719 137.496 12.75 137.496 11.7656C137.496 10.7812 137.645 9.85938 137.941 9C138.238 8.14062 138.668 7.39453 139.23 6.76172C139.793 6.12891 140.48 5.62891 141.293 5.26172C142.105 4.89453 143.027 4.71094 144.059 4.71094C144.848 4.71094 145.57 4.86328 146.227 5.16797C146.891 5.47266 147.457 5.94922 147.926 6.59766V0H151.887V18.5156ZM147.902 11.7656C147.902 11.4531 147.879 11.1094 147.832 10.7344C147.785 10.3594 147.711 9.98047 147.609 9.59766C147.508 9.21484 147.375 8.84375 147.211 8.48438C147.047 8.125 146.844 7.80469 146.602 7.52344C146.367 7.24219 146.09 7.01953 145.77 6.85547C145.457 6.68359 145.098 6.59766 144.691 6.59766C144.246 6.59766 143.859 6.67969 143.531 6.84375C143.203 7 142.922 7.21484 142.688 7.48828C142.453 7.75391 142.258 8.0625 142.102 8.41406C141.953 8.76562 141.836 9.13281 141.75 9.51562C141.664 9.89844 141.602 10.2852 141.562 10.6758C141.531 11.0586 141.516 11.4219 141.516 11.7656C141.516 12.1094 141.531 12.4766 141.562 12.8672C141.602 13.25 141.664 13.6328 141.75 14.0156C141.836 14.3984 141.953 14.7695 142.102 15.1289C142.258 15.4805 142.453 15.793 142.688 16.0664C142.922 16.332 143.203 16.5469 143.531 16.7109C143.859 16.8672 144.246 16.9453 144.691 16.9453C145.137 16.9453 145.527 16.8672 145.863 16.7109C146.199 16.5547 146.484 16.3438 146.719 16.0781C146.961 15.8047 147.156 15.4961 147.305 15.1523C147.461 14.8008 147.582 14.4336 147.668 14.0508C147.754 13.6602 147.812 13.2695 147.844 12.8789C147.883 12.4883 147.902 12.1172 147.902 11.7656Z" fill="#2A2A2A"/>
</svg>
